<svg xmlns="http://www.w3.org/2000/svg" viewBox="0 0 460 260" role="img" aria-labelledby="agent-sandboxing-title agent-sandboxing-desc" font-family="system-ui, sans-serif" font-size="14">
  <title id="agent-sandboxing-title">Agent sandbox isolation diagram</title>
  <desc id="agent-sandboxing-desc">two boundaries matter equally — what can run, and what it can reach</desc>
  <defs><marker id="ar2" viewBox="0 0 10 10" refX="9" refY="5" markerWidth="7" markerHeight="7" orient="auto-start-reverse"><path d="M0 0 L10 5 L0 10 z" fill="currentColor"/></marker></defs>
  <g fill="none" stroke="currentColor" stroke-width="1.5">
    <rect x="20" y="40" width="200" height="170" rx="8" stroke-dasharray="6 4"/>
    <rect x="46" y="70" width="148" height="40" rx="6" class="agsc-accent" stroke-width="2.2"/>
    <rect x="46" y="140" width="148" height="40" rx="6"/>
    <rect x="264" y="60" width="76" height="120" rx="6"/>
    <rect x="380" y="52" width="60" height="36" rx="6"/>
    <rect x="380" y="152" width="60" height="36" rx="6"/>
    <path d="M197.9 102.8 L260.1 113.1" marker-end="url(#ar2)"/>
    <path d="M343.6 100.7 L376.4 85.6" marker-end="url(#ar2)"/>
    <path d="M340 160 L376 170"/>
    <path d="M352 157 L368 173 M368 157 L352 173" stroke-width="2"/>
  </g>
  <g fill="currentColor" text-anchor="middle">
    <text x="120" y="32" font-size="11">disposable · destroyed after run</text>
    <text x="120" y="94" font-size="12">agent run</text>
    <text x="120" y="164" font-size="12">scoped filesystem</text>
    <text x="302" y="116" font-size="12">egress</text>
    <text x="302" y="132" font-size="12">allowlist</text>
    <text x="410" y="74" font-size="12">allowed</text>
    <text x="410" y="174" font-size="12">denied</text>
    <text x="230" y="248" font-size="11">two boundaries matter equally — what can run, and what it can reach</text>
  </g>
</svg>
